<svg id="Layer_1" data-name="Layer 1" xmlns="http://www.w3.org/2000/svg" viewBox="0 0 419.66 370.01"><defs><style>.cls-1{fill:none;}.cls-2{fill:#558bfc;}.cls-3{fill:#1152ed;}.cls-4{fill:#fefefe;}</style></defs><title>Exam Trainer Logo</title><path class="cls-1" d="M484.9,392.62c0-3.24-.11-6.48-.09-9.72C484.79,386.14,484.92,389.38,484.9,392.62Z" transform="translate(-189.4 -205.99)"/><path class="cls-1" d="M430.44,406l-.14-.11Z" transform="translate(-189.4 -205.99)"/><path class="cls-1" d="M457.8,379.7c1.05-.65,1.52-2,1.45-4.18-.05-1.8-.29-3.08-1.13-3.86.84.78,1.07,2.06,1.13,3.86C459.31,377.69,458.85,379.05,457.8,379.7Z" transform="translate(-189.4 -205.99)"/><path class="cls-1" d="M450.18,377.92a3,3,0,0,0,.8,1.59A3.08,3.08,0,0,1,450.18,377.92Z" transform="translate(-189.4 -205.99)"/><path class="cls-1" d="M324.94,399.18c-.07,9.22,0,18.44-.25,27.65.24-9.21.18-18.43.25-27.64Z" transform="translate(-189.4 -205.99)"/><path class="cls-1" d="M435.16,408.19a11.34,11.34,0,0,1-2.84-1A11.34,11.34,0,0,0,435.16,408.19Z" transform="translate(-189.4 -205.99)"/><path class="cls-1" d="M361.06,437.32a54.27,54.27,0,0,0-6-1.3,54.27,54.27,0,0,1,6,1.3c7,1.93,13.19,5.28,19.57,8.35a9.93,9.93,0,0,0,1.82.66,9.59,9.59,0,0,1-1.81-.66C374.25,442.6,368,439.25,361.06,437.32Z" transform="translate(-189.4 -205.99)"/><path class="cls-1" d="M386.57,402.35c-.5-.46-.56-1.3-.88-1.88.32.59.38,1.42.88,1.88.49,5.82.6,11.63.58,17.44C387.17,414,387.06,408.16,386.57,402.35Z" transform="translate(-189.4 -205.99)"/><path class="cls-1" d="M486.19,389q0,10.36-.05,20.74Q486.16,399.36,486.19,389Z" transform="translate(-189.4 -205.99)"/><path class="cls-1" d="M485.53,375.46c-.07-.09-.12-.19-.2-.28h0C485.41,375.27,485.46,375.37,485.53,375.46Z" transform="translate(-189.4 -205.99)"/><path class="cls-1" d="M385.14,446.12a3.61,3.61,0,0,0,1.57-2.88A3.61,3.61,0,0,1,385.14,446.12Z" transform="translate(-189.4 -205.99)"/><path class="cls-1" d="M369.9,409.39c.36,0,.72.1,1.07.16,1.08.18,2,.33,2.93.44-.88-.11-1.84-.26-2.93-.44C370.62,409.49,370.26,409.43,369.9,409.39Z" transform="translate(-189.4 -205.99)"/><path class="cls-1" d="M358.68,379.87c-1.2.6-2.9.41-4.25.51C355.78,380.28,357.48,380.48,358.68,379.87Z" transform="translate(-189.4 -205.99)"/><path class="cls-1" d="M326.34,402.31a14.79,14.79,0,0,0,13.3,8.4A14.81,14.81,0,0,1,326.34,402.31Z" transform="translate(-189.4 -205.99)"/><path class="cls-1" d="M482.18,435.42c2.85-.48,3.86-2.54,4-6C486,432.88,485,434.94,482.18,435.42Z" transform="translate(-189.4 -205.99)"/><path class="cls-1" d="M426.82,402.22a21.43,21.43,0,0,0,3.37,3.58,21.43,21.43,0,0,1-3.37-3.58c-.85-1.1-.68-3.05-2.78-3q0,11-.09,22,0-11,.1-22C426.13,399.17,426,401.12,426.82,402.22Z" transform="translate(-189.4 -205.99)"/><path class="cls-1" d="M381.08,408.14c1-1.37,1.66-3.52,2.47-6.75,0-.17.08-.35.13-.52-.05.17-.09.35-.13.52C382.73,404.61,382.05,406.77,381.08,408.14Z" transform="translate(-189.4 -205.99)"/><path class="cls-1" d="M427.41,446.7a5.43,5.43,0,0,0,2.18-.84,70.23,70.23,0,0,1,30.61-10.69,70.23,70.23,0,0,0-30.61,10.69A5.43,5.43,0,0,1,427.41,446.7Z" transform="translate(-189.4 -205.99)"/><path class="cls-2" d="M608.83,394.4c.74-9.49-.33-18.83-2.09-28.15,0,0,0,0,0-.06-.63-3.28-1.34-6.56-2.08-9.84a217.17,217.17,0,0,0-7.26-25.08c0-.08-.06-.16-.09-.25a175.18,175.18,0,0,0-22.73-43.58c-23.68-32.87-55.32-55-93.31-68.28-39.22-13.72-79.55-15.88-120.43-10.34-49.51,6.7-92,27.32-125.61,64.83a168.76,168.76,0,0,0-31.31,50.52A182.75,182.75,0,0,0,198,341.53c-2.65,9.21-4.51,18.67-6.55,28.06-.3,1.4-.56,2.8-.77,4.2-2.21,13.88-.74,27.77-1.16,41.54-.29,9.73,3.2,20.28,6.62,30.17,4.19,12.13,8.22,24.05,15.67,34.85q4.76,6.93,9.9,13.44h0l.05.06a150.59,150.59,0,0,0,20.91,21.8c3.62,3,5.77,4.78,7.76,5.24a5.58,5.58,0,0,0,1,.12c1.71,1.38,3.48,2.79,5.3,4.21a2.35,2.35,0,0,0,.74,1.63,9.17,9.17,0,0,0,1.83,1.47l.08,0q4.36,2.79,8.82,5.41c6.14,4.36,12.72,8.71,19.64,12.81a5.1,5.1,0,0,1-.47.45q5.07,2.84,10.33,5.42l.29-.18c2.47,1.31,5,2.58,7.5,3.79h0c47.06,22.57,112.2,23.57,140.8,14.78h0a227.84,227.84,0,0,0,35.77-10.33c-.05-.43-.11-.88-.16-1.32a.43.43,0,0,1,0-.12c7.28-2.78,14.91-6,22.83-9.91.33.26.66.51,1,.75,4.08-2.14,8.09-4.39,12-6.76a6.31,6.31,0,0,1-.63-.5,256.34,256.34,0,0,0,26.38-17.06,148.81,148.81,0,0,0,11.89-9.23h0a143.93,143.93,0,0,0,24.47-25.84,129.09,129.09,0,0,0,21.53-40c.26-.81.52-1.62.77-2.44a114.93,114.93,0,0,0,4.62-16.65h0c.38-1.59.73-3.18,1.06-4.79C610,415.89,608,405.14,608.83,394.4ZM259.5,351.31c7.05-18.16,20.35-26.91,37.86-31.67,27.49-7.47,55.23-12.87,83.81-14.31,14.07-.7,28.13-1.22,42.14-.63,24.46,1.05,48.77,4,72.54,10.34,11.18,3,22.48,5.36,33,10.66,8.13,4.12,12.11,11.39,15.76,18.82a130.85,130.85,0,0,1,13.54,65.72,143.54,143.54,0,0,1-3.33,24.23,241.2,241.2,0,0,1-18.86,26c-19.95,24.31-54.32,57.76-96.3,64.22-55,8.47-91.41-.36-135.07-25.9-9.77-5.71-19.9-12.25-30.68-19.63-8.41-11.76-15.33-24.31-19.27-38.29C246,410.51,248,380.89,259.5,351.31ZM228.77,467.17l.52.09c-.2.15-.4.3-.59.46A1.6,1.6,0,0,1,228.77,467.17Z" transform="translate(-189.4 -205.99)"/><path class="cls-3" d="M298,552.29l-.29.18q3.84,1.88,7.79,3.61h0C302.94,554.87,300.44,553.6,298,552.29Z" transform="translate(-189.4 -205.99)"/><path class="cls-3" d="M273.87,479.21c10.78,7.38,20.91,13.92,30.68,19.63A120.37,120.37,0,0,1,276.45,469c-14.4-22-20.48-46.18-19.23-72.4.85-17.76,6.14-34.17,13.62-50,3.73-7.91,10.14-12.66,18.19-15.48a301.31,301.31,0,0,1,63.37-15c23.68-2.89,47.49-5.11,71.39-3.3,13.52,1,26.93,3.29,40.38,4.86,17.3,2,34,6.06,50.58,11A35.2,35.2,0,0,1,537,347.6c18.34,37,17.33,79-1.06,112.92a241.2,241.2,0,0,0,18.86-26,143.54,143.54,0,0,0,3.33-24.23,130.85,130.85,0,0,0-13.54-65.72c-3.65-7.43-7.63-14.7-15.76-18.82-10.48-5.3-21.78-7.7-33-10.66-23.77-6.3-48.08-9.29-72.54-10.34-14-.59-28.07-.07-42.14.63-28.58,1.44-56.32,6.84-83.81,14.31-17.51,4.76-30.81,13.51-37.86,31.67-11.48,29.58-13.46,59.2-4.9,89.61C258.54,454.9,265.46,467.45,273.87,479.21Z" transform="translate(-189.4 -205.99)"/><path class="cls-3" d="M481.9,559.08a.43.43,0,0,0,0,.12c.05.44.11.89.16,1.32a221.23,221.23,0,0,0,23.65-10.6c-.34-.24-.67-.49-1-.75C496.81,553.06,489.18,556.3,481.9,559.08Z" transform="translate(-189.4 -205.99)"/><path class="cls-3" d="M229.29,467.26l-.52-.09a1.6,1.6,0,0,0-.07.55C228.89,467.56,229.09,467.41,229.29,467.26Z" transform="translate(-189.4 -205.99)"/><path class="cls-4" d="M537,347.6a35.2,35.2,0,0,0-22.23-18.85c-16.57-5-33.28-9-50.58-11-13.45-1.57-26.86-3.85-40.38-4.86-23.9-1.81-47.71.41-71.39,3.3a301.31,301.31,0,0,0-63.37,15c-8,2.82-14.46,7.57-18.19,15.48-7.48,15.87-12.77,32.28-13.62,50C256,422.85,262.05,447,276.45,469a120.37,120.37,0,0,0,28.1,29.81c43.66,25.54,80,34.37,135.07,25.9,42-6.46,76.35-39.91,96.3-64.22C554.31,426.61,555.32,384.6,537,347.6ZM386.77,442.27a9.71,9.71,0,0,1-.06,1,3.61,3.61,0,0,1-1.57,2.88,3.73,3.73,0,0,1-2.69.21,9.93,9.93,0,0,1-1.82-.66c-6.38-3.07-12.6-6.42-19.57-8.35a54.27,54.27,0,0,0-6-1.3c-8-1.27-16.08-.89-24.15-.55-4.6.2-6.4-1.12-6.24-5.91,0-.91,0-1.82.06-2.73.24-9.21.18-18.43.25-27.65,0-7.87-.61-15.8.12-23.61a30.93,30.93,0,0,1,61.64,2.05c.35,8.23-.06,16.49-.13,24.73.49,5.81.6,11.63.58,17.44C387.11,427.29,386.84,434.78,386.77,442.27ZM486.21,380q0,4.49,0,9,0,10.36-.05,20.74c0,6.23,0,12.45.05,18.68,0,.37,0,.72,0,1.05-.13,3.43-1.14,5.49-4,6a11.3,11.3,0,0,1-3.14,0,82.09,82.09,0,0,0-18.84-.25,70.23,70.23,0,0,0-30.61,10.69,5.43,5.43,0,0,1-2.18.84c-2,.24-3.46-1.29-3.47-4.2,0-7.1,0-14.2,0-21.3q0-11,.09-22c0-7.48-.35-15,0-22.45.66-15.69,13.82-28.25,29.75-28.74,16.53-.52,29.88,11,31.58,27.16.08.09.13.19.2.28C486.54,376.84,486.21,378.47,486.21,380Z" transform="translate(-189.4 -205.99)"/><path class="cls-3" d="M324.94,399.18a25.87,25.87,0,0,0,1.4,3.13,14.81,14.81,0,0,0,13.3,8.4,25.17,25.17,0,0,0,3.93-.13c7.77-.85,15.71.77,23.48-1.15a7.78,7.78,0,0,1,2.85,0c.36,0,.72.1,1.07.16,1.09.18,2,.33,2.93.44,3.8.47,5.78.12,7.18-1.85,1-1.37,1.65-3.53,2.47-6.75,0-.17.08-.35.13-.52.14-.59.35-1.12,1-1.06a1.17,1.17,0,0,1,1,.66c.32.58.38,1.42.88,1.88.07-8.24.48-16.5.13-24.73a30.93,30.93,0,0,0-61.64-2.05c-.73,7.81-.12,15.74-.12,23.61h0ZM345.75,370c3.9.63,5.58-1.1,5-5-.61-4.22,2-4.29,5.14-4.37,3.38-.08,5.61.52,5,4.51-.62,4.15,1.49,5.41,5.17,4.85,4.69-.72,5.07,1.91,5,5.64,0,3.45-.27,6-4.7,5.36-4-.62-6.09.79-5.44,5.18s-2.38,4.25-4.9,4.07c-3.48.05-6.64.62-5.43-4.52.91-3.85-1.83-4.95-5.11-4.49-4.84.7-4.85-2.14-5-5.72C340.46,371.6,341.23,369.31,345.75,370Z" transform="translate(-189.4 -205.99)"/><path class="cls-3" d="M426.82,402.22a21.43,21.43,0,0,0,3.37,3.58l.11.09.14.11a11.53,11.53,0,0,0,1.88,1.2,11.34,11.34,0,0,0,2.84,1,14.72,14.72,0,0,0,3.28.27c11-.32,22.1-.88,33.14.37,8.05.91,12.89-4.35,13.27-14,0-.74,0-1.48,0-2.21,0-3.24-.11-6.48-.09-9.72a54.11,54.11,0,0,1,.51-7.72h0C483.63,359,470.28,347.5,453.75,348c-15.93.49-29.09,13.05-29.75,28.74-.31,7.47,0,15,0,22.45C426.14,399.17,426,401.12,426.82,402.22ZM444.53,370c4.07.63,6-.87,5.41-5.21-.31-2.25.16-4.27,3.16-3.94,2.45.28,5.88-1.42,6.11,3.37.21,4.33,2.3,6.77,7.16,5.83,3.62-.71,4,1.74,3.77,4.45s1.12,6.75-3.82,6.34-6.9,1-6.34,6.17c.48,4.52-3.36,2.72-5.49,3.22-3.75.57-6-.44-5.43-4.7.44-3.31-.9-5.09-4.37-4.57-4.78.72-5-2.06-5-5.69S440.25,369.37,444.53,370Z" transform="translate(-189.4 -205.99)"/><path class="cls-2" d="M485.33,375.18h0a54.11,54.11,0,0,0-.51,7.72c0,3.24.12,6.48.09,9.72,0,.73,0,1.47,0,2.21-.38,9.65-5.22,14.91-13.27,14-11-1.25-22.11-.69-33.14-.37a14.72,14.72,0,0,1-3.28-.27,11.34,11.34,0,0,1-2.84-1,11.53,11.53,0,0,1-1.88-1.2l-.14-.11-.11-.09a21.43,21.43,0,0,1-3.37-3.58c-.85-1.1-.69-3.05-2.77-3q0,11-.1,22c0,7.1,0,14.2,0,21.3,0,2.91,1.45,4.44,3.47,4.2a5.43,5.43,0,0,0,2.18-.84,70.23,70.23,0,0,1,30.61-10.69,82.09,82.09,0,0,1,18.84.25,11.3,11.3,0,0,0,3.14,0c2.84-.48,3.86-2.54,4-6,0-.33,0-.68,0-1.05-.06-6.23-.06-12.45-.05-18.68q0-10.37.05-20.74,0-4.49,0-9c0-1.54.33-3.17-.68-4.55C485.46,375.37,485.41,375.27,485.33,375.18Z" transform="translate(-189.4 -205.99)"/><path class="cls-2" d="M386.57,402.35c-.5-.46-.56-1.29-.88-1.88a1.17,1.17,0,0,0-1-.66c-.67-.06-.88.47-1,1.06-.05.17-.09.35-.13.52-.81,3.23-1.5,5.38-2.47,6.75-1.4,2-3.38,2.32-7.18,1.85-.88-.11-1.85-.26-2.93-.44-.35-.06-.71-.12-1.07-.16a7.78,7.78,0,0,0-2.85,0c-7.77,1.92-15.71.3-23.48,1.15a25.17,25.17,0,0,1-3.93.13,14.79,14.79,0,0,1-13.3-8.4,25.87,25.87,0,0,1-1.4-3.13h0c-.07,9.21,0,18.43-.25,27.64,0,.91,0,1.82-.06,2.73-.16,4.79,1.64,6.11,6.24,5.91,8.07-.34,16.13-.72,24.15.55a54.27,54.27,0,0,1,6,1.3c7,1.93,13.19,5.28,19.58,8.35a9.59,9.59,0,0,0,1.81.66,3.73,3.73,0,0,0,2.69-.21,3.61,3.61,0,0,0,1.57-2.88,9.71,9.71,0,0,0,.06-1c.07-7.49.34-15,.38-22.48C387.17,414,387.06,408.17,386.57,402.35Z" transform="translate(-189.4 -205.99)"/><path class="cls-2" d="M345.53,381.25c3.28-.46,6,.64,5.11,4.49-1.21,5.14,1.95,4.57,5.43,4.52,2.52.18,5.54.35,4.9-4.07s1.42-5.8,5.44-5.18c4.43.67,4.66-1.91,4.7-5.36,0-3.73-.34-6.36-5-5.64-3.68.56-5.79-.7-5.17-4.85.6-4-1.63-4.59-5-4.51-3.14.08-5.75.15-5.14,4.37.57,3.91-1.11,5.64-5,5-4.52-.72-5.29,1.57-5.18,5.5C340.68,379.11,340.69,382,345.53,381.25Zm10.18-10.46c4.2-.13,4.13,2.22,4.41,5.26.21,2.26-.44,3.32-1.44,3.82-1.2.61-2.9.41-4.25.51l-.31,0c-3.61.42-3.33-2.54-3.23-5.29C350.15,371.4,352.33,370.9,355.71,370.79Z" transform="translate(-189.4 -205.99)"/><path class="cls-2" d="M444.69,381c3.47-.52,4.81,1.26,4.37,4.57-.55,4.26,1.68,5.27,5.43,4.7,2.13-.5,6,1.3,5.49-3.22-.56-5.13,1.52-6.56,6.34-6.17s3.6-3.59,3.82-6.34-.15-5.16-3.77-4.45c-4.86.94-6.95-1.5-7.16-5.83-.23-4.79-3.66-3.09-6.11-3.37-3-.33-3.47,1.69-3.16,3.94.59,4.34-1.34,5.84-5.41,5.21-4.28-.67-4.82,1.72-4.82,5.27S439.91,381.72,444.69,381Zm10.18-10.24a4.63,4.63,0,0,1,3.25.9c.84.78,1.08,2.06,1.13,3.86.07,2.18-.4,3.53-1.45,4.18a5.08,5.08,0,0,1-3.55.33c-1.65.31-2.65.08-3.27-.52a3,3,0,0,1-.8-1.59,14.32,14.32,0,0,1-.27-2.45C449.72,371.6,451.37,370.77,454.87,370.76Z" transform="translate(-189.4 -205.99)"/><path class="cls-3" d="M354.12,380.4l.31,0c1.35-.1,3.05.09,4.25-.51,1-.5,1.65-1.56,1.44-3.82-.28-3-.21-5.39-4.41-5.26-3.38.11-5.56.61-4.82,4.32C350.79,377.86,350.51,380.82,354.12,380.4Z" transform="translate(-189.4 -205.99)"/><path class="cls-3" d="M450.18,377.92a3.08,3.08,0,0,0,.8,1.59c.62.6,1.62.83,3.27.52a5.08,5.08,0,0,0,3.55-.33c1.05-.65,1.51-2,1.45-4.18-.06-1.8-.29-3.08-1.13-3.86a4.63,4.63,0,0,0-3.25-.9c-3.5,0-5.15.84-5,4.71A14.32,14.32,0,0,0,450.18,377.92Z" transform="translate(-189.4 -205.99)"/></svg>